<svg width="16" height="16" viewBox="0 0 16 16" fill="none" xmlns="http://www.w3.org/2000/svg">
<path d="M5.27992 8.97984C6.21992 8.97984 6.97325 9.74051 6.97325 10.6872V12.9598C6.97325 13.8998 6.21992 14.6665 5.27992 14.6665H3.02659C2.09325 14.6665 1.33325 13.8998 1.33325 12.9598V10.6872C1.33325 9.74051 2.09325 8.97984 3.02659 8.97984H5.27992ZM12.9733 8.97984C13.9067 8.97984 14.6667 9.74051 14.6667 10.6872V12.9598C14.6667 13.8998 13.9067 14.6665 12.9733 14.6665H10.72C9.77999 14.6665 9.02665 13.8998 9.02665 12.9598V10.6872C9.02665 9.74051 9.77999 8.97984 10.72 8.97984H12.9733ZM12.9733 1.33337C13.9067 1.33337 14.6667 2.10004 14.6667 3.04071V5.31337C14.6667 6.26004 13.9067 7.02004 12.9733 7.02004H10.72C9.77999 7.02004 9.02665 6.26004 9.02665 5.31337V3.04071C9.02665 2.10004 9.77999 1.33337 10.72 1.33337H12.9733Z" fill="#9FA8C7"/>
<path d="M6.97325 3.04071C6.97325 2.10004 6.21992 1.33337 5.27992 1.33337H3.02659C2.09325 1.33337 1.33325 2.10004 1.33325 3.04071V5.31337C1.33325 6.26004 2.09325 7.02004 3.02659 7.02004H5.27992C6.21992 7.02004 6.97325 6.26004 6.97325 5.31337V3.04071Z" fill="#9FA8C7"/>
</svg>
