<svg width="17" height="17" viewBox="0 0 17 17" fill="none" xmlns="http://www.w3.org/2000/svg">
<path d="M10.97 2.18835C13.0294 2.18835 14.176 3.37502 14.176 5.40835V12.295C14.176 14.3617 13.0294 15.5217 10.97 15.5217H5.38269C3.35603 15.5217 2.17603 14.3617 2.17603 12.295V5.40835C2.17603 3.37502 3.35603 2.18835 5.38269 2.18835H10.97ZM5.56269 11.3484C5.36269 11.3284 5.16936 11.4217 5.06269 11.595C4.95603 11.7617 4.95603 11.9817 5.06269 12.155C5.16936 12.3217 5.36269 12.4217 5.56269 12.395H10.7894C11.0554 12.3684 11.256 12.141 11.256 11.875C11.256 11.6017 11.0554 11.375 10.7894 11.3484H5.56269ZM10.7894 8.30769H5.56269C5.27536 8.30769 5.04269 8.54169 5.04269 8.82835C5.04269 9.11502 5.27536 9.34835 5.56269 9.34835H10.7894C11.076 9.34835 11.3094 9.11502 11.3094 8.82835C11.3094 8.54169 11.076 8.30769 10.7894 8.30769ZM7.55536 5.28835H5.56269V5.29502C5.27536 5.29502 5.04269 5.52835 5.04269 5.81502C5.04269 6.10169 5.27536 6.33502 5.56269 6.33502H7.55536C7.84269 6.33502 8.07603 6.10169 8.07603 5.80769C8.07603 5.52169 7.84269 5.28835 7.55536 5.28835Z" fill="#9FA8C7"/>
</svg>
