<svg width="16" height="16" viewBox="0 0 16 16" fill="none" xmlns="http://www.w3.org/2000/svg">
<path d="M11.0103 2C13.3095 2 14.6666 3.32306 14.6666 5.58787H11.8458V5.61098C10.5367 5.61098 9.47547 6.64566 9.47547 7.922C9.47547 9.19835 10.5367 10.233 11.8458 10.233H14.6666V10.441C14.6666 12.6769 13.3095 14 11.0103 14H4.98955C2.69029 14 1.33325 12.6769 1.33325 10.441V5.55898C1.33325 3.32306 2.69029 2 4.98955 2H11.0103ZM14.1688 6.58161C14.4437 6.58161 14.6666 6.79889 14.6666 7.06692V8.75397C14.6634 9.0207 14.4424 9.23617 14.1688 9.23929H11.8992C11.2364 9.24798 10.6569 8.80558 10.5066 8.17622C10.4313 7.78553 10.537 7.38238 10.7953 7.07481C11.0536 6.76725 11.4381 6.58672 11.8458 6.58161H14.1688ZM12.1658 7.36158H11.9466C11.812 7.36004 11.6823 7.41109 11.5866 7.50336C11.4908 7.59562 11.437 7.72142 11.437 7.85267C11.4369 8.12804 11.6642 8.35216 11.9466 8.35532H12.1658C12.4473 8.35532 12.6755 8.13286 12.6755 7.85845C12.6755 7.58404 12.4473 7.36158 12.1658 7.36158ZM8.25473 4.59413H4.49177C4.21261 4.59411 3.98539 4.81306 3.98214 5.08522C3.98214 5.36058 4.20935 5.5847 4.49177 5.58787H8.25473C8.53619 5.58787 8.76436 5.36541 8.76436 5.091C8.76436 4.81658 8.53619 4.59413 8.25473 4.59413Z" fill="#9FA8C7"/>
</svg>
